<?xml version="1.0" encoding="utf-8"?>
<!-- Generator: Adobe Illustrator 24.3.0, SVG Export Plug-In . SVG Version: 6.00 Build 0)  -->
<svg version="1.1" id="Layer_1" xmlns="http://www.w3.org/2000/svg" xmlns:xlink="http://www.w3.org/1999/xlink" x="0px" y="0px"
	 viewBox="0 0 720 720" style="enable-background:new 0 0 720 720;" xml:space="preserve">
<style type="text/css">
	.st0{fill:#010101;}
	.st1{fill:#676570;stroke:#010101;stroke-miterlimit:10;}
	.st2{fill:#FFFFFF;stroke:#010101;stroke-miterlimit:10;}
	.st3{fill:#444245;stroke:#010101;stroke-miterlimit:10;}
	.st4{fill:#E9E742;stroke:#010101;stroke-miterlimit:10;}
	.st5{fill:#FFFFFF;stroke:#010101;stroke-width:2;stroke-miterlimit:10;}
	.st6{fill:#F9F7C7;}
</style>
<g>
	<path class="st0" d="M680.09,384.47c1.97-1.17,3.23-3.23,3.36-5.52c0.37-6.53,0.56-12.95,0.56-19.07
		c0-72.92-23.03-142.01-66.6-199.8C555.5,77.98,461.68,30.89,360,30.89c-113.16,0-216.27,58.44-275.82,156.33
		C52.66,239.03,36,298.74,36,359.89c0,19.1,1.64,38.3,4.87,57.05c0.36,2.11,1.69,3.93,3.59,4.92c1.17,0.61,2.37,1.21,3.56,1.82
		l0.38,2.64c-0.47,0.19-0.94,0.42-1.37,0.72c-2.27,1.6-3.35,4.42-2.73,7.12c16.19,71.25,56.18,135.91,112.59,182.05
		c57.28,46.86,129.42,72.67,203.12,72.67c165.48,0,303.91-125.78,322.01-292.57c0.3-2.73-1.06-5.37-3.46-6.72
		c-1.05-0.59-2.21-0.88-3.36-0.88c-0.36,0-0.72,0.03-1.08,0.09l0.08-0.97C676.16,386.71,678.16,385.61,680.09,384.47z"/>
	<g>
		<g>
			<path class="st1" d="M380.81,467.26c-31.63-104.05-117.37-83.24-117.37-83.24c-69.92,4.16-80.74,77.41-80.74,77.41
				c-49.67-6.62-96.86-26.4-128.4-42.26l2.44,17.06c30.32,18.72,79.51,45.18,126.79,53.5c0,0,19.15,78.25,103.22,87.4
				c0,0,73.25,15.81,96.56-72.42c0,0,169.95-21.54,282.81-102.43l1.55-18.6C537.13,457.07,380.81,467.26,380.81,467.26z"/>
		</g>
		<path class="st2" d="M356.85,462.17c14.77,46.21,0.42,78.24-49.23,94.11c-39.74,12.7-82.13-8.83-94.68-48.11
			c-12.55-39.26,2.32-82.58,42.06-95.27C294.74,400.19,344.3,422.91,356.85,462.17z"/>
		<path class="st2" d="M286.75,577.14c-84.07-9.16-103.22-87.4-103.22-87.4c-50.4-8.86-102.99-38.35-132.55-57.1
			C83.45,575.51,209.48,682.03,360,682.03c163.27,0,297.71-125.34,315.2-286.45c-112.57,86.43-291.89,109.15-291.89,109.15
			C360,592.96,286.75,577.14,286.75,577.14z"/>
		<g>
			<path class="st3" d="M453.23,115.16C403.29,74.38,298.4,86.03,298.4,86.03c-63.26,1.66-72.42,24.14-72.42,24.14
				c-47.24,62.99-51.93,302.94-52.39,349.89c3.02,0.5,6.06,0.97,9.1,1.38c0,0,10.82-73.25,80.74-77.41c0,0,85.74-20.81,117.37,83.24
				c0,0,10.93-0.71,29.39-3.11c3.77-134.63,41.37-339.84,41.37-339.84L453.23,115.16z"/>
			<path class="st3" d="M90.04,190.79c-29.9,49.15-47.18,107.07-47.18,169.1c0,19.06,1.64,37.73,4.77,55.89
				c6.76,3.52,14.45,7.32,22.82,11.18C68.14,398.13,62.51,294.28,90.04,190.79z"/>
			<path class="st3" d="M677.14,359.89c0-73.6-24.32-141.43-65.22-195.67c-41.22,47.01-43.02,230.57-43.01,263.11
				c35.69-12.25,72.78-28.16,107.68-48.76C676.95,372.38,677.14,366.16,677.14,359.89z"/>
			<path class="st4" d="M611.92,164.21C553.96,87.34,462.69,37.75,360,37.75c-114.09,0-214.09,61.2-269.96,153.04
				c-27.53,103.5-21.9,207.34-19.59,236.16c28.22,13.01,64.67,26.74,103.15,33.11c0.46-46.96,5.15-286.9,52.39-349.89
				c0,0,9.16-22.47,72.42-24.14c0,0,104.88-11.65,154.83,29.13l-1.66,9.16c0,0-37.59,205.21-41.37,339.84
				c34.15-4.44,94.13-14.65,158.72-36.83C568.91,394.78,570.71,211.23,611.92,164.21z"/>
		</g>
		<path class="st5" d="M331.83,472.61c9.56,29.91-0.5,50.9-34.36,61.71c-27.1,8.66-55.65-4.92-63.78-30.34
			c-8.12-25.42,2.4-53.75,29.5-62.4C290.3,432.91,323.71,447.2,331.83,472.61z"/>
		<path class="st6" d="M563.92,190.44c-11.43,13.02-41.13,5.64-66.34-16.5c-25.19-22.13-36.35-50.62-24.91-63.65
			c11.43-13.02,41.13-5.63,66.33,16.49C564.2,148.93,575.36,177.42,563.92,190.44z"/>
	</g>
</g>
</svg>
